:SAMPLES-PER-SECOND 30
:FULLY-SPECIFIED
:DEGREES
163
root  -0.423916 35.8946 1.02633 178.295 24.0743 178.148
RightUpLeg  -28.2067 -10.908 -22.6456
RightLeg  32.8126 -14.3019 -9.94252
RightFoot  9.48665 -2.15423 12.0348
RightToes  -5.8209e-011 0 -3.6325e-017
Spine  16.5532 2.53774 -20.4131
Spine1  11.5535 -5.15659 15.6709
HEad  -12.6678 20.7936 -2.06961
LeftShoulder1  0.0854932 3.03064 -10.8642
LeftArm  -1.34915 -12.2027 -51.3254
LeftForeArm  107.638 -78.1074 -117.809
LeftHand  -2.47615 -3.49245 31.8846
RightShoulder  1.1513 0.936822 19.569
RightArm  -23.5095 -40.5503 51.4882
RightForeArm  -35.677 40.6357 11.4454
RightHand  -3.01852 5.98612 -30.3999
LeftUpLeg  -14.2326 -6.30773 12.9502
LeftLeg  41.0217 -8.53021 -7.472
LeftFoot  -28.2632 -2.16244 -15.5987
LeftToes  -3.91115e-011 -2.2622e-010 9.51032e-012
164
root  0.89342 35.9681 1.17368 179.649 18.3506 178.247
RightUpLeg  -23.6038 -9.74964 -26.3816
RightLeg  28.721 -16.5265 -9.78778
RightFoot  15.0318 -2.69508 11.9445
RightToes  -5.8209e-011 0 -3.6325e-017
Spine  16.2649 2.56404 -18.5636
Spine1  11.5889 -4.39474 14.2497
HEad  -14.5662 17.723 0.184834
LeftShoulder1  0.159274 2.6728 -11.9045
LeftArm  -0.782086 -8.49117 -51.193
LeftForeArm  115.304 -77.1283 -125.442
LeftHand  -2.39303 -3.36798 31.2801
RightShoulder  1.15999 1.04307 19.1272
RightArm  -28.4651 -41.5914 51.3021
RightForeArm  -42.8422 38.4241 10.9067
RightHand  -3.04231 5.66109 -31.4624
LeftUpLeg  -15.5808 -9.20815 15.4395
LeftLeg  37.8421 -10.5822 -8.32143
LeftFoot  -26.4791 -2.1125 -16.9846
LeftToes  -3.91115e-011 -2.2622e-010 9.51032e-012
165
root  2.21906 36.2317 1.37217 -178.274 12.2864 177.937
RightUpLeg  -18.987 -8.15204 -29.3536
RightLeg  24.7344 -18.2072 -9.13672
RightFoot  19.6124 -3.09213 11.6012
RightToes  -5.8209e-011 0 -3.6325e-017
Spine  16.6419 2.73885 -15.2007
Spine1  9.96463 -2.79506 11.5902
HEad  -17.0246 12.0692 2.57935
LeftShoulder1  0.338128 1.84037 -13.3048
LeftArm  2.65543 -5.0358 -53.8692
LeftForeArm  118.829 -76.6591 -128.424
LeftHand  -2.40304 -3.52981 30.8645
RightShoulder  1.13452 1.14305 17.9302
RightArm  -30.6865 -39.9632 49.0241
RightForeArm  -43.9505 37.0528 10.4789
RightHand  -3.33301 6.06268 -33.1522
LeftUpLeg  -17.7051 -12.8154 17.7489
LeftLeg  32.8709 -12.3887 -8.15229
LeftFoot  -22.8685 -1.7177 -18.2565
LeftToes  -3.91115e-011 -2.2622e-010 9.51032e-012
166
root  3.49613 36.4896 1.66659 -175.402 6.81232 176.858
RightUpLeg  -15.8076 -5.86918 -31.9274
RightLeg  20.8391 -18.5912 -7.83111
RightFoot  20.6381 -4.06314 14.6431
RightToes  -5.8209e-011 0 -3.6325e-017
Spine  17.3517 2.58755 -10.1332
Spine1  7.09231 -0.559717 6.19492
HEad  -19.7592 5.12856 5.37013
LeftShoulder1  0.554966 0.896395 -14.3653
LeftArm  7.88307 -2.41353 -56.5368
LeftForeArm  119.064 -76.436 -129.402
LeftHand  -2.14935 -3.31966 28.3369
RightShoulder  0.907117 0.544121 15.6954
RightArm  -32.0733 -35.2535 45.4462
RightForeArm  -37.1133 37.1818 10.3074
RightHand  -3.6435 6.7013 -34.2731
LeftUpLeg  -21.021 -16.1132 19.7283
LeftLeg  27.3563 -12.324 -6.53597
LeftFoot  -17.8836 -1.03825 -19.9105
LeftToes  -3.91115e-011 -2.2622e-010 9.51032e-012
167
root  4.68434 36.4829 2.11896 -172.331 2.95183 175.464
RightUpLeg  -15.0585 -4.97083 -33.8641
RightLeg  18.8273 -17.8796 -6.84901
RightFoot  17.7303 -5.76637 22.5526
RightToes  -5.8209e-011 0 -3.6325e-017
Spine  18.215 1.89274 -4.49019
Spine1  3.99455 1.23029 -0.567654
HEad  -21.8058 -0.344326 7.50396
LeftShoulder1  0.835624 -0.253276 -15.3912
LeftArm  12.364 0.0796583 -57.1978
LeftForeArm  120.33 -76.1339 -130.886
LeftHand  -1.73967 -2.87642 24.3843
RightShoulder  0.503205 -0.911556 12.3518
RightArm  -31.7991 -24.8207 39.4241
RightForeArm  -28.0763 36.924 9.88432
RightHand  -3.63777 6.84937 -33.8257
LeftUpLeg  -25.0138 -16.4165 21.0389
LeftLeg  23.8237 -9.24535 -4.10401
LeftFoot  -13.04 -0.248441 -21.5936
LeftToes  -3.91115e-011 -2.2622e-010 9.51032e-012
168
root  5.78384 36.1169 2.79898 -170.517 1.63806 174.393
RightUpLeg  -16.9706 -6.90312 -34.6046
RightLeg  20.3795 -14.8598 -6.19115
RightFoot  12.3535 -6.67212 31.523
RightToes  -5.8209e-011 0 -3.6325e-017
Spine  20.1079 0.975942 0.0713896
Spine1  1.21906 2.02789 -5.88224
HEad  -22.0422 -2.4129 6.72057
LeftShoulder1  1.17997 -1.57109 -16.5258
LeftArm  14.3493 3.32091 -56.3223
LeftForeArm  123.566 -75.7841 -132.895
LeftHand  -1.57311 -2.78729 22.36
RightShoulder  0.18139 -2.25383 7.1662
RightArm  -30.5102 -8.12949 31.6628
RightForeArm  -21.4426 35.9337 9.27326
RightHand  -3.46409 6.69763 -32.6895
LeftUpLeg  -28.0167 -12.2438 20.6334
LeftLeg  24.6818 -4.76507 -2.01582
LeftFoot  -10.2183 0.281755 -22.5074
LeftToes  -3.91115e-011 -2.2622e-010 9.51032e-012
169
root  6.81994 35.4432 3.66527 -170.57 2.79004 173.548
RightUpLeg  -21.2131 -8.77461 -34.558
RightLeg  25.8435 -10.014 -5.42865
RightFoot  5.27463 -5.51266 36.6645
RightToes  -5.8209e-011 0 -3.6325e-017
Spine  23.5391 -0.0181414 3.68673
Spine1  -1.0781 2.44846 -10.038
HEad  -21.0831 -1.7087 2.66443
LeftShoulder1  1.46432 -2.78926 -16.5803
LeftArm  14.4832 6.96468 -55.4522
LeftForeArm  124.763 -75.6667 -133.564
LeftHand  -1.65824 -2.96405 23.037
RightShoulder  0.0551951 -2.79297 -0.208929
RightArm  -32.1186 9.95379 23.9622
RightForeArm  -17.1236 37.2073 9.46732
RightHand  -3.19992 6.34082 -31.1968
LeftUpLeg  -29.3409 -6.20246 19.0051
LeftLeg  29.608 -1.44409 -0.540813
LeftFoot  -10.5986 0.212541 -23.0384
LeftToes  -3.91115e-011 -2.2622e-010 9.51032e-012
